ffmpeg started on 2016-12-12 at 01:15:06
Report written to "Output/theora/results/ffmpeg/crowd_run_2160p501500k.log"
Command line:
Tools/ffmpeg/ffmpeg -benchmark -y -i Input/y4m/crowd_run_2160p50.y4m -c:v libtheora -b:v 1500k -an Output/theora/encoded/crowd_run_2160p501500k.mkv
ffmpeg version N-82227-gdb23fde Copyright (c) 2000-2016 the FFmpeg developers
  built with gcc 5.4.0 (Ubuntu 5.4.0-6ubuntu1~16.04.2) 20160609
  configuration: --prefix=/home/jaroslav/ffmpeg_build --pkg-config-flags=--static --extra-cflags=-I/home/jaroslav/ffmpeg_build/include --extra-ldflags=-L/home/jaroslav/ffmpeg_build/lib --bindir=/home/jaroslav/bin --enable-gpl --enable-libass --enable-libfdk-aac --enable-libfreetype --enable-libmp3lame --enable-libopus --enable-libtheora --enable-libvorbis --enable-libvpx --enable-libx264 --enable-libx265 --enable-nvenc --enable-libmfx --enable-libxvid --enable-libgsm --enable-libopencore-amrnb --enable-version3 --enable-nonfree
  libavutil      55. 35.100 / 55. 35.100
  libavcodec     57. 66.101 / 57. 66.101
  libavformat    57. 57.100 / 57. 57.100
  libavdevice    57.  2.100 / 57.  2.100
  libavfilter     6. 66.100 /  6. 66.100
  libswscale      4.  3.100 /  4.  3.100
  libswresample   2.  4.100 /  2.  4.100
  libpostproc    54.  2.100 / 54.  2.100
Input #0, yuv4mpegpipe, from 'Input/y4m/crowd_run_2160p50.y4m':
  Duration: 00:00:10.00, start: 0.000000, bitrate: 4976642 kb/s
    Stream #0:0: Video: rawvideo (I420 / 0x30323449), yuv420p(progressive), 3840x2160, SAR 1:1 DAR 16:9, 50 fps, 50 tbr, 50 tbn, 50 tbc
Output #0, matroska, to 'Output/theora/encoded/crowd_run_2160p501500k.mkv':
  Metadata:
    encoder         : Lavf57.57.100
    Stream #0:0: Video: theora (libtheora) (theo / 0x6F656874), yuv420p, 3840x2160 [SAR 1:1 DAR 16:9], q=2-31, 1500 kb/s, 50 fps, 1k tbn, 50 tbc
    Metadata:
      encoder         : Lavc57.66.101 libtheora
Stream mapping:
  Stream #0:0 -> #0:0 (rawvideo (native) -> theora (libtheora))
Press [q] to stop, [?] for help
frame=    3 fps=0.0 q=-0.0 size=       4kB time=00:00:00.04 bitrate= 779.5kbits/s speed=0.052x    frame=    5 fps=3.4 q=-0.0 size=       4kB time=00:00:00.08 bitrate= 394.6kbits/s speed=0.0555x    frame=    7 fps=3.3 q=-0.0 size=       4kB time=00:00:00.12 bitrate= 264.1kbits/s speed=0.0564x    frame=    9 fps=3.2 q=-0.0 size=       4kB time=00:00:00.16 bitrate= 198.5kbits/s speed=0.0565x    frame=   11 fps=3.1 q=-0.0 size=       4kB time=00:00:00.20 bitrate= 159.0kbits/s speed=0.0564x    frame=   13 fps=3.0 q=-0.0 size=     189kB time=00:00:00.24 bitrate=6436.4kbits/s speed=0.0563x    frame=   15 fps=2.1 q=-0.0 size=     189kB time=00:00:00.28 bitrate=5520.2kbits/s speed=0.0392x    frame=   16 fps=1.4 q=-0.0 size=     189kB time=00:00:00.30 bitrate=5153.4kbits/s speed=0.0267x    frame=   17 fps=1.4 q=-0.0 size=     189kB time=00:00:00.32 bitrate=4832.3kbits/s speed=0.0265x    frame=   19 fps=1.5 q=-0.0 size=     189kB time=00:00:00.36 bitrate=4296.9kbits/s speed=0.0282x    frame=   21 fps=1.6 q=-0.0 size=     189kB time=00:00:00.40 bitrate=3868.3kbits/s speed=0.0297x    frame=   23 fps=1.6 q=-0.0 size=     189kB time=00:00:00.44 bitrate=3517.4kbits/s speed=0.0311x    frame=   25 fps=1.7 q=-0.0 size=     317kB time=00:00:00.48 bitrate=5397.0kbits/s speed=0.0323x    frame=   27 fps=1.8 q=-0.0 size=     317kB time=00:00:00.52 bitrate=4982.7kbits/s speed=0.0338x    frame=   29 fps=1.8 q=-0.0 size=     317kB time=00:00:00.56 bitrate=4627.4kbits/s speed=0.0349x    frame=   31 fps=1.8 q=-0.0 size=     317kB time=00:00:00.60 bitrate=4319.4kbits/s speed=0.0358x    frame=   33 fps=1.9 q=-0.0 size=     317kB time=00:00:00.64 bitrate=4049.9kbits/s speed=0.0367x    frame=   34 fps=1.9 q=-0.0 size=     317kB time=00:00:00.66 bitrate=3927.3kbits/s speed=0.0366x    frame=   36 fps=1.9 q=-0.0 size=     317kB time=00:00:00.70 bitrate=3703.2kbits/s speed=0.0373x    frame=   38 fps=2.0 q=-0.0 size=     445kB time=00:00:00.74 bitrate=4924.0kbits/s speed=0.0383x    frame=   40 fps=2.0 q=-0.0 size=     445kB time=00:00:00.78 bitrate=4671.8kbits/s speed=0.0391x    frame=   42 fps=2.0 q=-0.0 size=     445kB time=00:00:00.82 bitrate=4444.2kbits/s speed=0.0397x    frame=   44 fps=2.1 q=-0.0 size=     445kB time=00:00:00.86 bitrate=4237.7kbits/s speed=0.0403x    frame=   46 fps=2.1 q=-0.0 size=     445kB time=00:00:00.90 bitrate=4049.6kbits/s speed=0.0408x    frame=   48 fps=2.1 q=-0.0 size=     445kB time=00:00:00.94 bitrate=3877.5kbits/s speed=0.0413x    frame=   50 fps=2.1 q=-0.0 size=     571kB time=00:00:00.98 bitrate=4768.8kbits/s speed=0.0421x    frame=   52 fps=2.2 q=-0.0 size=     571kB time=00:00:01.02 bitrate=4582.0kbits/s speed=0.0426x    frame=   54 fps=2.2 q=-0.0 size=     571kB time=00:00:01.06 bitrate=4409.2kbits/s speed=0.043x    frame=   56 fps=2.2 q=-0.0 size=     571kB time=00:00:01.10 bitrate=4249.0kbits/s speed=0.0434x    frame=   58 fps=2.2 q=-0.0 size=     571kB time=00:00:01.14 bitrate=4100.1kbits/s speed=0.0438x    frame=   60 fps=2.2 q=-0.0 size=     571kB time=00:00:01.18 bitrate=3961.2kbits/s speed=0.0441x    frame=   62 fps=2.3 q=-0.0 size=     698kB time=00:00:01.22 bitrate=4680.7kbits/s speed=0.0447x    frame=   64 fps=2.3 q=-0.0 size=     698kB time=00:00:01.26 bitrate=4532.2kbits/s speed=0.0451x    frame=   66 fps=2.3 q=-0.0 size=     698kB time=00:00:01.30 bitrate=4392.9kbits/s speed=0.0454x    frame=   68 fps=2.3 q=-0.0 size=     698kB time=00:00:01.34 bitrate=4261.9kbits/s speed=0.0457x    frame=   70 fps=2.3 q=-0.0 size=     698kB time=00:00:01.38 bitrate=4138.4kbits/s speed=0.0459x    frame=   72 fps=2.3 q=-0.0 size=     698kB time=00:00:01.42 bitrate=4021.9kbits/s speed=0.0462x    frame=   74 fps=2.4 q=-0.0 size=     822kB time=00:00:01.46 bitrate=4610.6kbits/s speed=0.0466x    frame=   76 fps=2.4 q=-0.0 size=     822kB time=00:00:01.50 bitrate=4487.7kbits/s speed=0.0469x    frame=   78 fps=2.4 q=-0.0 size=     822kB time=00:00:01.54 bitrate=4371.3kbits/s speed=0.0472x    frame=   80 fps=2.4 q=-0.0 size=     822kB time=00:00:01.58 bitrate=4260.7kbits/s speed=0.0474x    frame=   82 fps=2.4 q=-0.0 size=     822kB time=00:00:01.62 bitrate=4155.5kbits/s speed=0.0476x    frame=   84 fps=2.4 q=-0.0 size=     822kB time=00:00:01.66 bitrate=4055.5kbits/s speed=0.0477x    frame=   86 fps=2.4 q=-0.0 size=     946kB time=00:00:01.70 bitrate=4558.0kbits/s speed=0.0481x    frame=   88 fps=2.4 q=-0.0 size=     946kB time=00:00:01.74 bitrate=4453.2kbits/s speed=0.0484x    frame=   90 fps=2.5 q=-0.0 size=     946kB time=00:00:01.78 bitrate=4353.2kbits/s speed=0.0486x    frame=   92 fps=2.5 q=-0.0 size=     946kB time=00:00:01.82 bitrate=4257.6kbits/s speed=0.0487x    frame=   94 fps=2.5 q=-0.0 size=     946kB time=00:00:01.86 bitrate=4166.1kbits/s speed=0.0489x    frame=   96 fps=2.5 q=-0.0 size=     946kB time=00:00:01.90 bitrate=4078.4kbits/s speed=0.049x    frame=   98 fps=2.5 q=-0.0 size=    1069kB time=00:00:01.94 bitrate=4513.8kbits/s speed=0.0494x    frame=  100 fps=2.5 q=-0.0 size=    1069kB time=00:00:01.98 bitrate=4422.6kbits/s speed=0.0495x    frame=  102 fps=2.5 q=-0.0 size=    1069kB time=00:00:02.02 bitrate=4335.1kbits/s speed=0.0497x    frame=  104 fps=2.5 q=-0.0 size=    1069kB time=00:00:02.06 bitrate=4251.0kbits/s speed=0.0498x    frame=  106 fps=2.5 q=-0.0 size=    1069kB time=00:00:02.10 bitrate=4170.0kbits/s speed=0.0499x    frame=  108 fps=2.5 q=-0.0 size=    1069kB time=00:00:02.14 bitrate=4092.1kbits/s speed=0.0501x    frame=  110 fps=2.5 q=-0.0 size=    1196kB time=00:00:02.18 bitrate=4491.2kbits/s speed=0.0504x    frame=  112 fps=2.5 q=-0.0 size=    1196kB time=00:00:02.22 bitrate=4410.3kbits/s speed=0.0505x    frame=  114 fps=2.6 q=-0.0 size=    1196kB time=00:00:02.26 bitrate=4332.3kbits/s speed=0.0506x    frame=  116 fps=2.6 q=-0.0 size=    1196kB time=00:00:02.30 bitrate=4257.0kbits/s speed=0.0507x    frame=  118 fps=2.6 q=-0.0 size=    1196kB time=00:00:02.34 bitrate=4184.2kbits/s speed=0.0508x    frame=  120 fps=2.6 q=-0.0 size=    1196kB time=00:00:02.38 bitrate=4113.9kbits/s speed=0.0509x    frame=  122 fps=2.6 q=-0.0 size=    1320kB time=00:00:02.42 bitrate=4465.7kbits/s speed=0.0512x    frame=  124 fps=2.6 q=-0.0 size=    1320kB time=00:00:02.46 bitrate=4393.1kbits/s speed=0.0513x    frame=  126 fps=2.6 q=-0.0 size=    1320kB time=00:00:02.50 bitrate=4322.8kbits/s speed=0.0514x    frame=  128 fps=2.6 q=-0.0 size=    1320kB time=00:00:02.54 bitrate=4254.8kbits/s speed=0.0515x    frame=  130 fps=2.6 q=-0.0 size=    1320kB time=00:00:02.58 bitrate=4188.8kbits/s speed=0.0516x    frame=  132 fps=2.6 q=-0.0 size=    1320kB time=00:00:02.62 bitrate=4124.9kbits/s speed=0.0517x    frame=  134 fps=2.6 q=-0.0 size=    1445kB time=00:00:02.66 bitrate=4447.0kbits/s speed=0.0519x    frame=  136 fps=2.6 q=-0.0 size=    1445kB time=00:00:02.70 bitrate=4381.2kbits/s speed=0.052x    frame=  138 fps=2.6 q=-0.0 size=    1445kB time=00:00:02.74 bitrate=4317.2kbits/s speed=0.0521x    frame=  140 fps=2.6 q=-0.0 size=    1445kB time=00:00:02.78 bitrate=4255.1kbits/s speed=0.0522x    frame=  142 fps=2.6 q=-0.0 size=    1445kB time=00:00:02.82 bitrate=4194.8kbits/s speed=0.0522x    frame=  144 fps=2.6 q=-0.0 size=    1445kB time=00:00:02.86 bitrate=4136.2kbits/s speed=0.0523x    frame=  146 fps=2.6 q=-0.0 size=    1568kB time=00:00:02.90 bitrate=4427.5kbits/s speed=0.0525x    frame=  148 fps=2.6 q=-0.0 size=    1568kB time=00:00:02.94 bitrate=4367.3kbits/s speed=0.0526x    frame=  150 fps=2.7 q=-0.0 size=    1568kB time=00:00:02.98 bitrate=4308.7kbits/s speed=0.0527x    frame=  152 fps=2.7 q=-0.0 size=    1568kB time=00:00:03.02 bitrate=4251.6kbits/s speed=0.0527x    frame=  154 fps=2.7 q=-0.0 size=    1568kB time=00:00:03.06 bitrate=4196.1kbits/s speed=0.0528x    frame=  156 fps=2.7 q=-0.0 size=    1568kB time=00:00:03.10 bitrate=4142.0kbits/s speed=0.0528x    frame=  158 fps=2.7 q=-0.0 size=    1692kB time=00:00:03.14 bitrate=4413.8kbits/s speed=0.053x    frame=  160 fps=2.7 q=-0.0 size=    1692kB time=00:00:03.18 bitrate=4358.3kbits/s speed=0.0531x    frame=  162 fps=2.7 q=-0.0 size=    1692kB time=00:00:03.22 bitrate=4304.2kbits/s speed=0.0532x    frame=  164 fps=2.7 q=-0.0 size=    1692kB time=00:00:03.26 bitrate=4251.4kbits/s speed=0.0532x    frame=  166 fps=2.7 q=-0.0 size=    1692kB time=00:00:03.30 bitrate=4199.9kbits/s speed=0.0532x    frame=  168 fps=2.7 q=-0.0 size=    1692kB time=00:00:03.34 bitrate=4149.6kbits/s speed=0.0531x    frame=  170 fps=2.7 q=-0.0 size=    1818kB time=00:00:03.38 bitrate=4405.3kbits/s speed=0.0533x    frame=  172 fps=2.7 q=-0.0 size=    1818kB time=00:00:03.42 bitrate=4353.8kbits/s speed=0.0533x    frame=  174 fps=2.7 q=-0.0 size=    1818kB time=00:00:03.46 bitrate=4303.5kbits/s speed=0.0534x    frame=  176 fps=2.7 q=-0.0 size=    1818kB time=00:00:03.50 bitrate=4254.3kbits/s speed=0.0534x    frame=  178 fps=2.7 q=-0.0 size=    1818kB time=00:00:03.54 bitrate=4206.3kbits/s speed=0.0534x    frame=  180 fps=2.7 q=-0.0 size=    1818kB time=00:00:03.58 bitrate=4159.3kbits/s speed=0.0535x    frame=  182 fps=2.7 q=-0.0 size=    1942kB time=00:00:03.62 bitrate=4394.1kbits/s speed=0.0536x    frame=  184 fps=2.7 q=-0.0 size=    1942kB time=00:00:03.66 bitrate=4346.1kbits/s speed=0.0537x    frame=  186 fps=2.7 q=-0.0 size=    1942kB time=00:00:03.70 bitrate=4299.1kbits/s speed=0.0538x    frame=  188 fps=2.7 q=-0.0 size=    1942kB time=00:00:03.74 bitrate=4253.1kbits/s speed=0.0538x    frame=  190 fps=2.7 q=-0.0 size=    1942kB time=00:00:03.78 bitrate=4208.1kbits/s speed=0.0538x    frame=  192 fps=2.7 q=-0.0 size=    1942kB time=00:00:03.82 bitrate=4164.1kbits/s speed=0.0538x    frame=  194 fps=2.7 q=-0.0 size=    2068kB time=00:00:03.86 bitrate=4386.8kbits/s speed=0.0537x    frame=  196 fps=2.7 q=-0.0 size=    2068kB time=00:00:03.90 bitrate=4341.8kbits/s speed=0.0538x    frame=  198 fps=2.7 q=-0.0 size=    2068kB time=00:00:03.94 bitrate=4297.8kbits/s speed=0.0538x    frame=  200 fps=2.7 q=-0.0 size=    2068kB time=00:00:03.98 bitrate=4254.6kbits/s speed=0.0539x    frame=  202 fps=2.7 q=-0.0 size=    2068kB time=00:00:04.02 bitrate=4212.3kbits/s speed=0.0539x    frame=  204 fps=2.7 q=-0.0 size=    2068kB time=00:00:04.06 bitrate=4170.8kbits/s speed=0.0539x    frame=  206 fps=2.7 q=-0.0 size=    2194kB time=00:00:04.10 bitrate=4382.7kbits/s speed=0.054x    frame=  208 fps=2.7 q=-0.0 size=    2194kB time=00:00:04.14 bitrate=4340.4kbits/s speed=0.0541x    frame=  210 fps=2.7 q=-0.0 size=    2194kB time=00:00:04.18 bitrate=4298.9kbits/s speed=0.0541x    frame=  212 fps=2.7 q=-0.0 size=    2194kB time=00:00:04.22 bitrate=4258.1kbits/s speed=0.0541x    frame=  214 fps=2.7 q=-0.0 size=    2194kB time=00:00:04.26 bitrate=4218.1kbits/s speed=0.0542x    frame=  216 fps=2.7 q=-0.0 size=    2194kB time=00:00:04.30 bitrate=4178.9kbits/s speed=0.0542x    frame=  218 fps=2.7 q=-0.0 size=    2321kB time=00:00:04.34 bitrate=4380.2kbits/s speed=0.0543x    frame=  220 fps=2.7 q=-0.0 size=    2321kB time=00:00:04.38 bitrate=4340.2kbits/s speed=0.0544x    frame=  222 fps=2.7 q=-0.0 size=    2321kB time=00:00:04.42 bitrate=4300.9kbits/s speed=0.0544x    frame=  224 fps=2.7 q=-0.0 size=    2321kB time=00:00:04.46 bitrate=4262.4kbits/s speed=0.0544x    frame=  226 fps=2.7 q=-0.0 size=    2321kB time=00:00:04.50 bitrate=4224.5kbits/s speed=0.0544x    frame=  228 fps=2.7 q=-0.0 size=    2321kB time=00:00:04.54 bitrate=4187.3kbits/s speed=0.0544x    frame=  230 fps=2.7 q=-0.0 size=    2448kB time=00:00:04.58 bitrate=4378.0kbits/s speed=0.0546x    frame=  232 fps=2.7 q=-0.0 size=    2448kB time=00:00:04.62 bitrate=4340.1kbits/s speed=0.0546x    frame=  234 fps=2.7 q=-0.0 size=    2448kB time=00:00:04.66 bitrate=4302.8kbits/s speed=0.0546x    frame=  236 fps=2.7 q=-0.0 size=    2448kB time=00:00:04.70 bitrate=4266.2kbits/s speed=0.0547x    frame=  238 fps=2.7 q=-0.0 size=    2448kB time=00:00:04.74 bitrate=4230.2kbits/s speed=0.0547x    frame=  240 fps=2.7 q=-0.0 size=    2448kB time=00:00:04.78 bitrate=4194.8kbits/s speed=0.0547x    frame=  242 fps=2.7 q=-0.0 size=    2576kB time=00:00:04.82 bitrate=4377.8kbits/s speed=0.0548x    frame=  244 fps=2.8 q=-0.0 size=    2576kB time=00:00:04.86 bitrate=4341.7kbits/s speed=0.0548x    frame=  246 fps=2.8 q=-0.0 size=    2576kB time=00:00:04.90 bitrate=4306.3kbits/s speed=0.0548x    frame=  248 fps=2.8 q=-0.0 size=    2576kB time=00:00:04.94 bitrate=4271.5kbits/s speed=0.0549x    frame=  250 fps=2.8 q=-0.0 size=    2576kB time=00:00:04.98 bitrate=4237.1kbits/s speed=0.0549x    frame=  252 fps=2.8 q=-0.0 size=    2576kB time=00:00:05.02 bitrate=4203.4kbits/s speed=0.0549x    frame=  254 fps=2.8 q=-0.0 size=    2704kB time=00:00:05.06 bitrate=4376.6kbits/s speed=0.055x    frame=  256 fps=2.8 q=-0.0 size=    2704kB time=00:00:05.10 bitrate=4342.3kbits/s speed=0.055x    frame=  258 fps=2.8 q=-0.0 size=    2704kB time=00:00:05.14 bitrate=4308.5kbits/s speed=0.0551x    frame=  260 fps=2.8 q=-0.0 size=    2704kB time=00:00:05.18 bitrate=4275.2kbits/s speed=0.0551x    frame=  262 fps=2.8 q=-0.0 size=    2704kB time=00:00:05.22 bitrate=4242.5kbits/s speed=0.0551x    frame=  264 fps=2.8 q=-0.0 size=    2704kB time=00:00:05.26 bitrate=4210.2kbits/s speed=0.0551x    frame=  266 fps=2.8 q=-0.0 size=    2831kB time=00:00:05.30 bitrate=4375.3kbits/s speed=0.0552x    frame=  268 fps=2.8 q=-0.0 size=    2831kB time=00:00:05.34 bitrate=4342.5kbits/s speed=0.0552x    frame=  270 fps=2.8 q=-0.0 size=    2831kB time=00:00:05.38 bitrate=4310.2kbits/s speed=0.0552x    frame=  272 fps=2.8 q=-0.0 size=    2831kB time=00:00:05.42 bitrate=4278.4kbits/s speed=0.0553x    frame=  274 fps=2.8 q=-0.0 size=    2831kB time=00:00:05.46 bitrate=4247.1kbits/s speed=0.0553x    frame=  276 fps=2.8 q=-0.0 size=    2831kB time=00:00:05.50 bitrate=4216.2kbits/s speed=0.0553x    frame=  278 fps=2.8 q=-0.0 size=    2959kB time=00:00:05.54 bitrate=4374.0kbits/s speed=0.0554x    frame=  280 fps=2.8 q=-0.0 size=    2959kB time=00:00:05.58 bitrate=4342.6kbits/s speed=0.0554x    frame=  282 fps=2.8 q=-0.0 size=    2959kB time=00:00:05.62 bitrate=4311.7kbits/s speed=0.0554x    frame=  284 fps=2.8 q=-0.0 size=    2959kB time=00:00:05.66 bitrate=4281.3kbits/s speed=0.0554x    frame=  286 fps=2.8 q=-0.0 size=    2959kB time=00:00:05.70 bitrate=4251.2kbits/s speed=0.0552x    frame=  287 fps=2.8 q=-0.0 size=    2959kB time=00:00:05.72 bitrate=4236.4kbits/s speed=0.055x    frame=  289 fps=2.8 q=-0.0 size=    3087kB time=00:00:05.76 bitrate=4389.0kbits/s speed=0.055x    frame=  291 fps=2.8 q=-0.0 size=    3087kB time=00:00:05.80 bitrate=4358.7kbits/s speed=0.0551x    frame=  293 fps=2.8 q=-0.0 size=    3087kB time=00:00:05.84 bitrate=4328.9kbits/s speed=0.0551x    frame=  295 fps=2.8 q=-0.0 size=    3087kB time=00:00:05.88 bitrate=4299.4kbits/s speed=0.0551x    frame=  297 fps=2.8 q=-0.0 size=    3087kB time=00:00:05.92 bitrate=4270.4kbits/s speed=0.0551x    frame=  299 fps=2.8 q=-0.0 size=    3087kB time=00:00:05.96 bitrate=4241.7kbits/s speed=0.0552x    frame=  301 fps=2.8 q=-0.0 size=    3214kB time=00:00:06.00 bitrate=4387.8kbits/s speed=0.0552x    frame=  303 fps=2.8 q=-0.0 size=    3214kB time=00:00:06.04 bitrate=4358.7kbits/s speed=0.0553x    frame=  305 fps=2.8 q=-0.0 size=    3214kB time=00:00:06.08 bitrate=4330.1kbits/s speed=0.0553x    frame=  307 fps=2.8 q=-0.0 size=    3214kB time=00:00:06.12 bitrate=4301.8kbits/s speed=0.0553x    frame=  309 fps=2.8 q=-0.0 size=    3214kB time=00:00:06.16 bitrate=4273.8kbits/s speed=0.0553x    frame=  311 fps=2.8 q=-0.0 size=    3214kB time=00:00:06.20 bitrate=4246.3kbits/s speed=0.0553x    frame=  313 fps=2.8 q=-0.0 size=    3340kB time=00:00:06.24 bitrate=4384.2kbits/s speed=0.0553x    frame=  315 fps=2.8 q=-0.0 size=    3340kB time=00:00:06.28 bitrate=4356.3kbits/s speed=0.0554x    frame=  316 fps=2.8 q=-0.0 size=    3340kB time=00:00:06.30 bitrate=4342.4kbits/s speed=0.0552x    frame=  318 fps=2.8 q=-0.0 size=    3340kB time=00:00:06.34 bitrate=4315.1kbits/s speed=0.0552x    frame=  320 fps=2.8 q=-0.0 size=    3340kB time=00:00:06.38 bitrate=4288.0kbits/s speed=0.0552x    frame=  322 fps=2.8 q=-0.0 size=    3340kB time=00:00:06.42 bitrate=4261.3kbits/s speed=0.0552x    frame=  324 fps=2.8 q=-0.0 size=    3340kB time=00:00:06.46 bitrate=4234.9kbits/s speed=0.0552x    frame=  326 fps=2.8 q=-0.0 size=    3463kB time=00:00:06.50 bitrate=4364.2kbits/s speed=0.0553x    frame=  328 fps=2.8 q=-0.0 size=    3463kB time=00:00:06.54 bitrate=4337.5kbits/s speed=0.0553x    frame=  330 fps=2.8 q=-0.0 size=    3463kB time=00:00:06.58 bitrate=4311.2kbits/s speed=0.0553x    frame=  332 fps=2.8 q=-0.0 size=    3463kB time=00:00:06.62 bitrate=4285.1kbits/s speed=0.0553x    frame=  334 fps=2.8 q=-0.0 size=    3463kB time=00:00:06.66 bitrate=4259.4kbits/s speed=0.0553x    frame=  336 fps=2.8 q=-0.0 size=    3463kB time=00:00:06.70 bitrate=4234.0kbits/s speed=0.0553x    frame=  338 fps=2.8 q=-0.0 size=    3589kB time=00:00:06.74 bitrate=4361.9kbits/s speed=0.0554x    frame=  340 fps=2.8 q=-0.0 size=    3589kB time=00:00:06.78 bitrate=4336.2kbits/s speed=0.0554x    frame=  342 fps=2.8 q=-0.0 size=    3589kB time=00:00:06.82 bitrate=4310.7kbits/s speed=0.0555x    frame=  344 fps=2.8 q=-0.0 size=    3589kB time=00:00:06.86 bitrate=4285.6kbits/s speed=0.0555x    frame=  346 fps=2.8 q=-0.0 size=    3589kB time=00:00:06.90 bitrate=4260.8kbits/s speed=0.0555x    frame=  348 fps=2.8 q=-0.0 size=    3589kB time=00:00:06.94 bitrate=4236.2kbits/s speed=0.0555x    frame=  350 fps=2.8 q=-0.0 size=    3716kB time=00:00:06.98 bitrate=4360.2kbits/s speed=0.0556x    frame=  352 fps=2.8 q=-0.0 size=    3716kB time=00:00:07.02 bitrate=4335.3kbits/s speed=0.0556x    frame=  354 fps=2.8 q=-0.0 size=    3716kB time=00:00:07.06 bitrate=4310.8kbits/s speed=0.0556x    frame=  356 fps=2.8 q=-0.0 size=    3716kB time=00:00:07.10 bitrate=4286.5kbits/s speed=0.0556x    frame=  358 fps=2.8 q=-0.0 size=    3716kB time=00:00:07.14 bitrate=4262.5kbits/s speed=0.0556x    frame=  360 fps=2.8 q=-0.0 size=    3716kB time=00:00:07.18 bitrate=4238.8kbits/s speed=0.0556x    frame=  362 fps=2.8 q=-0.0 size=    3842kB time=00:00:07.22 bitrate=4358.4kbits/s speed=0.0557x    frame=  363 fps=2.8 q=-0.0 size=    3842kB time=00:00:07.24 bitrate=4346.3kbits/s speed=0.0556x    frame=  365 fps=2.8 q=-0.0 size=    3842kB time=00:00:07.28 bitrate=4322.5kbits/s speed=0.0556x    frame=  367 fps=2.8 q=-0.0 size=    3842kB time=00:00:07.32 bitrate=4298.8kbits/s speed=0.0556x    frame=  369 fps=2.8 q=-0.0 size=    3842kB time=00:00:07.36 bitrate=4275.5kbits/s speed=0.0556x    frame=  371 fps=2.8 q=-0.0 size=    3842kB time=00:00:07.40 bitrate=4252.4kbits/s speed=0.0556x    frame=  373 fps=2.8 q=-0.0 size=    3969kB time=00:00:07.44 bitrate=4369.2kbits/s speed=0.0556x    frame=  375 fps=2.8 q=-0.0 size=    3969kB time=00:00:07.48 bitrate=4345.8kbits/s speed=0.0557x    frame=  377 fps=2.8 q=-0.0 size=    3969kB time=00:00:07.52 bitrate=4322.7kbits/s speed=0.0557x    frame=  379 fps=2.8 q=-0.0 size=    3969kB time=00:00:07.56 bitrate=4299.8kbits/s speed=0.0557x    frame=  381 fps=2.8 q=-0.0 size=    3969kB time=00:00:07.60 bitrate=4277.2kbits/s speed=0.0557x    frame=  383 fps=2.8 q=-0.0 size=    3969kB time=00:00:07.64 bitrate=4254.8kbits/s speed=0.0557x    frame=  385 fps=2.8 q=-0.0 size=    4094kB time=00:00:07.68 bitrate=4366.4kbits/s speed=0.0557x    frame=  387 fps=2.8 q=-0.0 size=    4094kB time=00:00:07.72 bitrate=4343.8kbits/s speed=0.0558x    frame=  389 fps=2.8 q=-0.0 size=    4094kB time=00:00:07.76 bitrate=4321.4kbits/s speed=0.0558x    frame=  391 fps=2.8 q=-0.0 size=    4094kB time=00:00:07.80 bitrate=4299.2kbits/s speed=0.0558x    frame=  393 fps=2.8 q=-0.0 size=    4094kB time=00:00:07.84 bitrate=4277.3kbits/s speed=0.0558x    frame=  395 fps=2.8 q=-0.0 size=    4094kB time=00:00:07.88 bitrate=4255.6kbits/s speed=0.0558x    frame=  397 fps=2.8 q=-0.0 size=    4218kB time=00:00:07.92 bitrate=4362.4kbits/s speed=0.0558x    frame=  399 fps=2.8 q=-0.0 size=    4218kB time=00:00:07.96 bitrate=4340.5kbits/s speed=0.0559x    frame=  401 fps=2.8 q=-0.0 size=    4218kB time=00:00:08.00 bitrate=4318.8kbits/s speed=0.0559x    frame=  403 fps=2.8 q=-0.0 size=    4218kB time=00:00:08.04 bitrate=4297.3kbits/s speed=0.0558x    frame=  405 fps=2.8 q=-0.0 size=    4218kB time=00:00:08.08 bitrate=4276.1kbits/s speed=0.0558x    frame=  407 fps=2.8 q=-0.0 size=    4218kB time=00:00:08.12 bitrate=4255.0kbits/s speed=0.0558x    frame=  409 fps=2.8 q=-0.0 size=    4341kB time=00:00:08.16 bitrate=4357.2kbits/s speed=0.0558x    frame=  411 fps=2.8 q=-0.0 size=    4341kB time=00:00:08.20 bitrate=4336.0kbits/s speed=0.0558x    frame=  413 fps=2.8 q=-0.0 size=    4341kB time=00:00:08.24 bitrate=4314.9kbits/s speed=0.0558x    frame=  415 fps=2.8 q=-0.0 size=    4341kB time=00:00:08.28 bitrate=4294.1kbits/s speed=0.0558x    frame=  417 fps=2.8 q=-0.0 size=    4341kB time=00:00:08.32 bitrate=4273.4kbits/s speed=0.0558x    frame=  419 fps=2.8 q=-0.0 size=    4341kB time=00:00:08.36 bitrate=4253.0kbits/s speed=0.0558x    frame=  421 fps=2.8 q=-0.0 size=    4459kB time=00:00:08.40 bitrate=4347.9kbits/s speed=0.0558x    frame=  423 fps=2.8 q=-0.0 size=    4459kB time=00:00:08.44 bitrate=4327.3kbits/s speed=0.0559x    frame=  425 fps=2.8 q=-0.0 size=    4459kB time=00:00:08.48 bitrate=4306.9kbits/s speed=0.0559x    frame=  427 fps=2.8 q=-0.0 size=    4459kB time=00:00:08.52 bitrate=4286.6kbits/s speed=0.0559x    frame=  429 fps=2.8 q=-0.0 size=    4459kB time=00:00:08.56 bitrate=4266.6kbits/s speed=0.0559x    frame=  431 fps=2.8 q=-0.0 size=    4459kB time=00:00:08.60 bitrate=4246.8kbits/s speed=0.0559x    frame=  433 fps=2.8 q=-0.0 size=    4576kB time=00:00:08.64 bitrate=4338.4kbits/s speed=0.0558x    frame=  435 fps=2.8 q=-0.0 size=    4576kB time=00:00:08.68 bitrate=4318.5kbits/s speed=0.0559x    frame=  437 fps=2.8 q=-0.0 size=    4576kB time=00:00:08.72 bitrate=4298.7kbits/s speed=0.0559x    frame=  439 fps=2.8 q=-0.0 size=    4576kB time=00:00:08.76 bitrate=4279.0kbits/s speed=0.0559x    frame=  441 fps=2.8 q=-0.0 size=    4576kB time=00:00:08.80 bitrate=4259.6kbits/s speed=0.0559x    frame=  443 fps=2.8 q=-0.0 size=    4576kB time=00:00:08.84 bitrate=4240.3kbits/s speed=0.0559x    frame=  445 fps=2.8 q=-0.0 size=    4697kB time=00:00:08.88 bitrate=4332.4kbits/s speed=0.0559x    frame=  447 fps=2.8 q=-0.0 size=    4697kB time=00:00:08.92 bitrate=4313.0kbits/s speed=0.056x    frame=  449 fps=2.8 q=-0.0 size=    4697kB time=00:00:08.96 bitrate=4293.8kbits/s speed=0.0559x    frame=  451 fps=2.8 q=-0.0 size=    4697kB time=00:00:09.00 bitrate=4274.7kbits/s speed=0.0559x    frame=  453 fps=2.8 q=-0.0 size=    4697kB time=00:00:09.04 bitrate=4255.8kbits/s speed=0.0559x    frame=  455 fps=2.8 q=-0.0 size=    4697kB time=00:00:09.08 bitrate=4237.0kbits/s speed=0.0559x    frame=  457 fps=2.8 q=-0.0 size=    4821kB time=00:00:09.12 bitrate=4329.8kbits/s speed=0.0558x    frame=  459 fps=2.8 q=-0.0 size=    4821kB time=00:00:09.16 bitrate=4310.9kbits/s speed=0.0559x    frame=  461 fps=2.8 q=-0.0 size=    4821kB time=00:00:09.20 bitrate=4292.2kbits/s speed=0.0559x    frame=  463 fps=2.8 q=-0.0 size=    4821kB time=00:00:09.24 bitrate=4273.6kbits/s speed=0.0559x    frame=  465 fps=2.8 q=-0.0 size=    4821kB time=00:00:09.28 bitrate=4255.2kbits/s speed=0.0559x    frame=  467 fps=2.8 q=-0.0 size=    4821kB time=00:00:09.32 bitrate=4236.9kbits/s speed=0.0559x    frame=  469 fps=2.8 q=-0.0 size=    4943kB time=00:00:09.36 bitrate=4325.4kbits/s speed=0.0559x    frame=  471 fps=2.8 q=-0.0 size=    4943kB time=00:00:09.40 bitrate=4307.0kbits/s speed=0.056x    frame=  473 fps=2.8 q=-0.0 size=    4943kB time=00:00:09.44 bitrate=4288.8kbits/s speed=0.056x    frame=  475 fps=2.8 q=-0.0 size=    4943kB time=00:00:09.48 bitrate=4270.7kbits/s speed=0.056x    frame=  477 fps=2.8 q=-0.0 size=    4943kB time=00:00:09.52 bitrate=4252.8kbits/s speed=0.056x    frame=  479 fps=2.8 q=-0.0 size=    4943kB time=00:00:09.56 bitrate=4235.0kbits/s speed=0.056x    frame=  481 fps=2.8 q=-0.0 size=    5067kB time=00:00:09.60 bitrate=4323.5kbits/s speed=0.056x    frame=  483 fps=2.8 q=-0.0 size=    5067kB time=00:00:09.64 bitrate=4305.5kbits/s speed=0.056x    frame=  485 fps=2.8 q=-0.0 size=    5067kB time=00:00:09.68 bitrate=4287.7kbits/s speed=0.056x    frame=  487 fps=2.8 q=-0.0 size=    5067kB time=00:00:09.72 bitrate=4270.1kbits/s speed=0.056x    frame=  489 fps=2.8 q=-0.0 size=    5067kB time=00:00:09.76 bitrate=4252.6kbits/s speed=0.056x    frame=  491 fps=2.8 q=-0.0 size=    5067kB time=00:00:09.80 bitrate=4235.2kbits/s speed=0.056x    frame=  493 fps=2.8 q=-0.0 size=    5191kB time=00:00:09.84 bitrate=4321.3kbits/s speed=0.056x    frame=  495 fps=2.8 q=-0.0 size=    5191kB time=00:00:09.88 bitrate=4303.8kbits/s speed=0.0561x    frame=  497 fps=2.8 q=-0.0 size=    5191kB time=00:00:09.92 bitrate=4286.5kbits/s speed=0.0561x    frame=  499 fps=2.8 q=-0.0 size=    5191kB time=00:00:09.96 bitrate=4269.2kbits/s speed=0.0561x    frame=  500 fps=2.8 q=-0.0 size=    5191kB time=00:00:09.98 bitrate=4260.7kbits/s speed=0.056x    frame=  500 fps=2.8 q=-0.0 Lsize=    5317kB time=00:00:09.98 bitrate=4363.6kbits/s speed=0.056x    
video:5308kB audio:0kB subtitle:0kB other streams:0kB global headers:3kB muxing overhead: 0.162015%
bench: utime=157.252s
bench: maxrss=203440kB
